<svg width="20" height="20" viewBox="0 0 20 20" fill="none" xmlns="http://www.w3.org/2000/svg">
<path d="M16.6667 5.00016H3.33333V3.3335H16.6667V5.00016ZM13.075 11.6668H11.6667V13.0752C11.1417 13.8668 10.8333 14.8085 10.8333 15.8335C10.8333 16.1168 10.8667 16.3918 10.9083 16.6668H3.33333V11.6668H2.5V10.0002L3.33333 5.8335H16.6667L17.5 10.0002V11.1252C16.975 10.9418 16.4167 10.8335 15.8333 10.8335C14.8083 10.8335 13.8667 11.1418 13.075 11.6668ZM10 11.6668H5V15.0002H10V11.6668ZM15.8 10.0002L15.3 7.50016H4.7L4.2 10.0002H15.8ZM16.6667 15.0002V12.5002H15V15.0002H12.5V16.6668H15V19.1668H16.6667V16.6668H19.1667V15.0002H16.6667Z" fill="#8C8A88"/>
</svg>
