<svg width="32" height="32" viewBox="0 0 32 32" fill="none" xmlns="http://www.w3.org/2000/svg">
<rect x="0.25" y="0.25" width="31.5" height="31.5" rx="15.75" fill="#F8F8F8"/>
<rect x="0.25" y="0.25" width="31.5" height="31.5" rx="15.75" stroke="#D9D7D4" stroke-width="0.5"/>
<path d="M14.8334 16.5917C14.7553 16.5142 14.6933 16.422 14.651 16.3205C14.6087 16.2189 14.5869 16.11 14.5869 16C14.5869 15.89 14.6087 15.7811 14.651 15.6795C14.6933 15.578 14.7553 15.4858 14.8334 15.4083L18.6584 11.5917C18.7365 11.5142 18.7985 11.422 18.8408 11.3205C18.8831 11.2189 18.9049 11.11 18.9049 11C18.9049 10.89 18.8831 10.7811 18.8408 10.6795C18.7985 10.578 18.7365 10.4858 18.6584 10.4083C18.5022 10.2531 18.291 10.166 18.0709 10.166C17.8507 10.166 17.6395 10.2531 17.4834 10.4083L13.6584 14.2333C13.1902 14.7021 12.9272 15.3375 12.9272 16C12.9272 16.6625 13.1902 17.2979 13.6584 17.7667L17.4834 21.5917C17.6386 21.7456 17.8481 21.8324 18.0667 21.8333C18.1764 21.834 18.2851 21.813 18.3866 21.7715C18.4882 21.73 18.5805 21.6689 18.6584 21.5917C18.7365 21.5142 18.7985 21.422 18.8408 21.3205C18.8831 21.2189 18.9049 21.11 18.9049 21C18.9049 20.89 18.8831 20.7811 18.8408 20.6795C18.7985 20.578 18.7365 20.4858 18.6584 20.4083L14.8334 16.5917Z" fill="#E70016"/>
</svg>
