<svg width="20" height="20" viewBox="0 0 20 20" fill="none" xmlns="http://www.w3.org/2000/svg">
<path d="M16.6665 3.33317H14.0248L12.4998 1.6665H7.49984L5.97484 3.33317H3.33317C2.89114 3.33317 2.46722 3.50877 2.15466 3.82133C1.8421 4.13389 1.6665 4.55781 1.6665 4.99984V14.9998C1.6665 15.4419 1.8421 15.8658 2.15466 16.1783C2.46722 16.4909 2.89114 16.6665 3.33317 16.6665H16.6665C17.1085 16.6665 17.5325 16.4909 17.845 16.1783C18.1576 15.8658 18.3332 15.4419 18.3332 14.9998V4.99984C18.3332 4.55781 18.1576 4.13389 17.845 3.82133C17.5325 3.50877 17.1085 3.33317 16.6665 3.33317ZM16.6665 14.9998H3.33317V4.99984H6.70817L8.23317 3.33317H11.7665L13.2915 4.99984H16.6665V14.9998ZM9.99984 5.83317C8.89477 5.83317 7.83496 6.27216 7.05356 7.05356C6.27216 7.83496 5.83317 8.89477 5.83317 9.99984C5.83317 11.1049 6.27216 12.1647 7.05356 12.9461C7.83496 13.7275 8.89477 14.1665 9.99984 14.1665C11.1049 14.1665 12.1647 13.7275 12.9461 12.9461C13.7275 12.1647 14.1665 11.1049 14.1665 9.99984C14.1665 8.89477 13.7275 7.83496 12.9461 7.05356C12.1647 6.27216 11.1049 5.83317 9.99984 5.83317ZM9.99984 12.4998C9.3368 12.4998 8.70091 12.2364 8.23207 11.7676C7.76323 11.2988 7.49984 10.6629 7.49984 9.99984C7.49984 9.3368 7.76323 8.70091 8.23207 8.23207C8.70091 7.76323 9.3368 7.49984 9.99984 7.49984C10.6629 7.49984 11.2988 7.76323 11.7676 8.23207C12.2364 8.70091 12.4998 9.3368 12.4998 9.99984C12.4998 10.6629 12.2364 11.2988 11.7676 11.7676C11.2988 12.2364 10.6629 12.4998 9.99984 12.4998Z" fill="#DEDCD9"/>
</svg>
