<svg width="44" height="44" viewBox="0 0 44 44" fill="none" xmlns="http://www.w3.org/2000/svg">
<rect width="44" height="44" rx="22" fill="#00B331"/>
<g clip-path="url(#clip0_118_3366)">
<path d="M28.8794 16.954L19.6667 26.166C19.6048 26.2282 19.5312 26.2775 19.4501 26.3112C19.3691 26.3449 19.2822 26.3622 19.1944 26.3622C19.1066 26.3622 19.0197 26.3449 18.9387 26.3112C18.8576 26.2775 18.784 26.2282 18.7221 26.166L15.1594 22.6C15.0975 22.5378 15.0239 22.4885 14.9428 22.4548C14.8618 22.4211 14.7749 22.4038 14.6871 22.4038C14.5993 22.4038 14.5124 22.4211 14.4314 22.4548C14.3503 22.4885 14.2767 22.5378 14.2147 22.6V22.6C14.1526 22.6619 14.1032 22.7356 14.0696 22.8166C14.0359 22.8977 14.0186 22.9846 14.0186 23.0723C14.0186 23.1601 14.0359 23.247 14.0696 23.3281C14.1032 23.4091 14.1526 23.4827 14.2147 23.5447L17.7787 27.108C18.1547 27.4833 18.6642 27.694 19.1954 27.694C19.7266 27.694 20.2361 27.4833 20.6121 27.108L29.8241 17.898C29.8862 17.8361 29.9354 17.7625 29.969 17.6815C30.0026 17.6005 30.0199 17.5137 30.0199 17.426C30.0199 17.3383 30.0026 17.2515 29.969 17.1705C29.9354 17.0895 29.8862 17.0159 29.8241 16.954C29.7621 16.8918 29.6885 16.8425 29.6075 16.8088C29.5264 16.7751 29.4395 16.7578 29.3517 16.7578C29.264 16.7578 29.1771 16.7751 29.096 16.8088C29.015 16.8425 28.9414 16.8918 28.8794 16.954Z" fill="#F8F8F8"/>
</g>
<defs>
<clipPath id="clip0_118_3366">
<rect width="16" height="16" fill="white" transform="translate(14 14)"/>
</clipPath>
</defs>
</svg>
