<svg width="55" height="44" viewBox="0 0 55 44" fill="none" xmlns="http://www.w3.org/2000/svg">
<rect x="0.5" y="0.5" width="54" height="43" rx="7.5" fill="#A91E2B"/>
<rect x="0.5" y="0.5" width="54" height="43" rx="7.5" stroke="white"/>
<path d="M16.8335 16.6667V14C16.8335 13.2928 17.1144 12.6145 17.6145 12.1144C18.1146 11.6143 18.7929 11.3334 19.5002 11.3334H22.1668M16.8335 27.3334V30C16.8335 30.7073 17.1144 31.3856 17.6145 31.8857C18.1146 32.3858 18.7929 32.6667 19.5002 32.6667H22.1668M32.8335 11.3334H35.5002C36.2074 11.3334 36.8857 11.6143 37.3858 12.1144C37.8859 12.6145 38.1668 13.2928 38.1668 14V16.6667M32.8335 32.6667H35.5002C36.2074 32.6667 36.8857 32.3858 37.3858 31.8857C37.8859 31.3856 38.1668 30.7073 38.1668 30V27.3334M23.5002 19.3334H23.5135M31.5002 19.3334H31.5135M24.1668 26C24.6013 26.4435 25.12 26.7958 25.6923 27.0363C26.2647 27.2768 26.8793 27.4007 27.5002 27.4007C28.121 27.4007 28.7356 27.2768 29.308 27.0363C29.8804 26.7958 30.399 26.4435 30.8335 26" stroke="white" stroke-width="2" stroke-linecap="round" stroke-linejoin="round"/>
</svg>
