<svg width="41" height="40" viewBox="0 0 41 40" fill="none" xmlns="http://www.w3.org/2000/svg">
<rect x="0.5" width="40" height="40" rx="20" fill="#ADADAD"/>
<path d="M20.5 10.0464C26.017 10.0464 30.5 14.4914 30.5 19.9894C30.5 21.3514 30.331 22.3304 30.074 23.1224C29.463 25.0044 28.2 26.5874 26.772 27.9224C25.79 28.8404 24.333 28.7004 23.458 27.8304C22.216 26.5954 21.876 24.6784 23.223 23.3404L24.143 22.4254C24.6025 21.9689 25.2213 21.7086 25.8689 21.6993C26.5165 21.6899 27.1425 21.9323 27.615 22.3754C27.892 22.6354 28.029 22.9454 28.172 22.5054C28.353 21.9454 28.5 21.1784 28.5 19.9894C28.5 15.6084 24.924 12.0464 20.5 12.0464C16.076 12.0464 12.5 15.6084 12.5 19.9894C12.5 21.1794 12.647 21.9444 12.828 22.5054C12.971 22.9454 13.108 22.6354 13.385 22.3754C13.8575 21.9323 14.4835 21.6899 15.1311 21.6993C15.7787 21.7086 16.3975 21.9689 16.857 22.4254L17.777 23.3404C19.124 24.6784 18.784 26.5954 17.542 27.8304C16.667 28.7004 15.21 28.8404 14.228 27.9234C12.79 26.5794 11.541 25.0154 10.926 23.1234C10.67 22.3294 10.5 21.3504 10.5 19.9884C10.5 14.4914 14.983 10.0464 20.5 10.0464ZM25.552 23.8444C24.974 24.4184 23.762 25.3114 24.632 26.1774C24.824 26.3674 25.123 26.7254 25.406 26.4614C26.044 25.8654 26.669 25.1914 27.089 24.6244C26.759 24.3144 26.063 23.3374 25.552 23.8444ZM15.448 23.8444C14.938 23.3374 14.241 24.3144 13.911 24.6244C14.331 25.1914 14.956 25.8644 15.594 26.4614C15.876 26.7254 16.176 26.3684 16.368 26.1774C17.238 25.3114 16.026 24.4184 15.448 23.8444Z" fill="white"/>
</svg>
