<svg width="44" height="32" viewBox="0 0 44 32" fill="none" xmlns="http://www.w3.org/2000/svg">
<rect x="0.5" y="0.5" width="43" height="31" rx="15.5" fill="#F8F8F8"/>
<rect x="0.5" y="0.5" width="43" height="31" rx="15.5" stroke="#CA0013"/>
<g clip-path="url(#clip0_18_2605)">
<path d="M30.7956 17.3849L29.2122 11.6883C28.7481 10.0194 27.7395 8.55352 26.3467 7.52367C24.9539 6.49382 23.2567 5.9591 21.5251 6.0045C19.7935 6.0499 18.1267 6.67282 16.7898 7.77424C15.4528 8.87565 14.5224 10.3924 14.1464 12.0833L12.9206 17.5958C12.7852 18.2049 12.7883 18.8366 12.9297 19.4444C13.0712 20.0521 13.3473 20.6203 13.7377 21.1071C14.1282 21.5938 14.6229 21.9866 15.1855 22.2566C15.7481 22.5265 16.3641 22.6666 16.9881 22.6666H17.9164C18.1077 23.6085 18.6187 24.4553 19.3629 25.0636C20.107 25.6718 21.0386 26.0041 21.9997 26.0041C22.9609 26.0041 23.8924 25.6718 24.6366 25.0636C25.3808 24.4553 25.8918 23.6085 26.0831 22.6666H26.7814C27.4237 22.6667 28.0574 22.5182 28.6329 22.2328C29.2083 21.9474 29.71 21.5329 30.0988 21.0215C30.4875 20.5101 30.7527 19.9158 30.8737 19.285C30.9948 18.6541 30.9683 18.0039 30.7964 17.3849H30.7956ZM21.9997 24.3333C21.4845 24.3311 20.9825 24.1699 20.5625 23.8715C20.1424 23.5732 19.8248 23.1524 19.6531 22.6666H24.3464C24.1747 23.1524 23.857 23.5732 23.437 23.8715C23.0169 24.1699 22.515 24.3311 21.9997 24.3333ZM28.7714 20.0124C28.5392 20.3205 28.2383 20.5702 27.8927 20.7416C27.5472 20.913 27.1663 21.0015 26.7806 20.9999H16.9881C16.6137 20.9999 16.2442 20.9158 15.9067 20.7538C15.5692 20.5918 15.2724 20.3561 15.0382 20.064C14.804 19.772 14.6384 19.4311 14.5535 19.0665C14.4687 18.7019 14.4668 18.3229 14.5481 17.9574L15.7731 12.4441C16.0684 11.116 16.7992 9.92462 17.8493 9.05949C18.8994 8.19436 20.2086 7.70509 21.5687 7.66946C22.9288 7.63383 24.2618 8.05388 25.3558 8.86284C26.4498 9.6718 27.242 10.8232 27.6064 12.1341L29.1897 17.8308C29.2944 18.2019 29.311 18.5923 29.2384 18.9711C29.1658 19.3498 29.0059 19.7063 28.7714 20.0124Z" fill="#CA0013"/>
</g>
<defs>
<clipPath id="clip0_18_2605">
<rect width="20" height="20" fill="white" transform="translate(12 6)"/>
</clipPath>
</defs>
</svg>
