<svg width="270" height="283" viewBox="0 0 270 283" fill="none" xmlns="http://www.w3.org/2000/svg">
<g clip-path="url(#clip0_2102_3262)">
<rect width="270" height="283" fill="white"/>
<path d="M219.375 280.305L264.375 280.305L264.375 237.181" stroke="#A91E2B" stroke-width="4" stroke-linecap="round"/>
<path d="M264.375 48.5142L264.375 5.39035L219.375 5.39034" stroke="#A91E2B" stroke-width="4" stroke-linecap="round"/>
<path d="M50.625 5.39062L5.625 5.39062L5.625 48.5144" stroke="#A91E2B" stroke-width="4" stroke-linecap="round"/>
<path d="M5.625 238.528L5.625 281.652H50.625" stroke="#A91E2B" stroke-width="4" stroke-linecap="round"/>
<g filter="url(#filter0_f_2102_3262)">
<path d="M33.75 244.997H236.25" stroke="#DFDFDF" stroke-width="4" stroke-linecap="round"/>
</g>
</g>
<rect width="220" height="220" transform="translate(25 31)" fill="white"/>
<path d="M33.1479 39.1479H90.185V96.185H33.1479V39.1479ZM106.481 39.1479H114.629V47.2961H106.481V39.1479ZM122.778 39.1479H147.222V47.2961H171.666V63.5924H155.37V55.4442H139.074V63.5924H130.926V79.8887H122.778V71.7405H114.629V63.5924H122.778V55.4442H114.629V47.2961H122.778V39.1479ZM179.815 39.1479H236.852V96.185H179.815V39.1479ZM41.2961 47.2961V88.0368H82.0368V47.2961H41.2961ZM187.963 47.2961V88.0368H228.704V47.2961H187.963ZM49.4442 55.4442H73.8887V79.8887H49.4442V55.4442ZM98.3331 55.4442H106.481V71.7405H114.629V88.0368H106.481V104.333H98.3331V55.4442ZM196.111 55.4442H220.555V79.8887H196.111V55.4442ZM139.074 63.5924H155.37V79.8887H163.518V71.7405H171.666V104.333H163.518V88.0368H155.37V96.185H147.222V88.0368H139.074V104.333H155.37V112.481H147.222V120.629H163.518V112.481H171.666V120.629H179.815V136.926H187.963V145.074H179.815V153.222H163.518V145.074H171.666V128.778H130.926V120.629H139.074V112.481H122.778V104.333H114.629V88.0368H122.778V96.185H130.926V79.8887H147.222V71.7405H139.074V63.5924ZM33.1479 104.333H41.2961V112.481H49.4442V120.629H41.2961V128.778H33.1479V104.333ZM49.4442 104.333H90.185V112.481H49.4442V104.333ZM179.815 104.333H220.555V112.481H196.111V120.629H212.407V128.778H187.963V112.481H179.815V104.333ZM90.185 112.481H106.481V128.778H114.629V120.629H122.778V136.926H147.222V153.222H163.518V161.37H155.37V169.518H147.222V161.37H130.926V177.666H106.481V185.815H98.3331V177.666H82.0368V169.518H90.185V161.37H82.0368V169.518H73.8887V161.37H65.7405V128.778H73.8887V120.629H90.185V112.481ZM220.555 112.481H228.704V120.629H236.852V145.074H228.704V153.222H236.852V169.518H228.704V161.37H220.555V145.074H212.407V136.926H228.704V128.778H220.555V112.481ZM57.5924 120.629H65.7405V128.778H57.5924V120.629ZM49.4442 128.778H57.5924V145.074H49.4442V128.778ZM82.0368 128.778V136.926H90.185V145.074H73.8887V153.222H90.185V145.074H98.3331V128.778H82.0368ZM106.481 136.926V153.222H98.3331V161.37H106.481V153.222H114.629V161.37H122.778V153.222H139.074V145.074H122.778V153.222H114.629V136.926H106.481ZM155.37 136.926H163.518V145.074H155.37V136.926ZM196.111 136.926H204.259V145.074H196.111V136.926ZM33.1479 145.074H49.4442V153.222H41.2961V177.666H33.1479V145.074ZM187.963 145.074H196.111V153.222H204.259V145.074H212.407V161.37H204.259V177.666H212.407V185.815H204.259V193.963H212.407V202.111H204.259V210.259H212.407V202.111H220.555V193.963H212.407V185.815H236.852V242.852H171.666V234.704H163.518V226.555H204.259V218.407H196.111V210.259H187.963V218.407H163.518V210.259H147.222V202.111H155.37V193.963H163.518V185.815H155.37V177.666H163.518V161.37H171.666V169.518H187.963V161.37H179.815V153.222H187.963V145.074ZM49.4442 153.222H57.5924V161.37H65.7405V169.518H73.8887V177.666H49.4442V153.222ZM212.407 169.518H220.555V177.666H212.407V169.518ZM130.926 177.666H147.222V185.815H155.37V193.963H147.222V202.111H139.074V210.259H130.926V193.963H139.074V185.815H130.926V177.666ZM171.666 177.666V202.111H196.111V177.666H171.666ZM33.1479 185.815H90.185V242.852H33.1479V185.815ZM114.629 185.815H122.778V193.963H114.629V185.815ZM179.815 185.815H187.963V193.963H179.815V185.815ZM41.2961 193.963V234.704H82.0368V193.963H41.2961ZM98.3331 193.963H106.481V210.259H114.629V218.407H106.481V226.555H98.3331V193.963ZM49.4442 202.111H73.8887V226.555H49.4442V202.111ZM114.629 202.111H122.778V210.259H114.629V202.111ZM114.629 218.407H139.074V226.555H130.926V242.852H98.3331V234.704H106.481V226.555H114.629V218.407ZM155.37 218.407H163.518V226.555H155.37V218.407ZM220.555 218.407V226.555H212.407V234.704H228.704V218.407H220.555ZM147.222 226.555H155.37V234.704H147.222V226.555Z" fill="black"/>
<defs>
<filter id="filter0_f_2102_3262" x="29.75" y="240.997" width="210.5" height="8" filterUnits="userSpaceOnUse" color-interpolation-filters="sRGB">
<feFlood flood-opacity="0" result="BackgroundImageFix"/>
<feBlend mode="normal" in="SourceGraphic" in2="BackgroundImageFix" result="shape"/>
<feGaussianBlur stdDeviation="1" result="effect1_foregroundBlur_2102_3262"/>
</filter>
<clipPath id="clip0_2102_3262">
<rect width="270" height="283" fill="white"/>
</clipPath>
</defs>
</svg>
