<svg width="40" height="40" viewBox="0 0 40 40" fill="none" xmlns="http://www.w3.org/2000/svg">
<rect width="40" height="40" rx="20" fill="#006A40"/>
<path d="M19.9997 6.51416C27.594 6.51416 33.7499 12.6701 33.7499 20.2644C33.7499 27.8586 27.594 34.0146 19.9997 34.0146C12.4055 34.0146 6.24951 27.8586 6.24951 20.2644C6.24951 12.6701 12.4055 6.51416 19.9997 6.51416ZM19.9997 9.2642C17.0823 9.2642 14.2844 10.4231 12.2214 12.4861C10.1585 14.549 8.99955 17.3469 8.99955 20.2644C8.99955 23.1818 10.1585 25.9797 12.2214 28.0427C14.2844 30.1056 17.0823 31.2645 19.9997 31.2645C22.9171 31.2645 25.7151 30.1056 27.778 28.0427C29.8409 25.9797 30.9999 23.1818 30.9999 20.2644C30.9999 17.3469 29.8409 14.549 27.778 12.4861C25.7151 10.4231 22.9171 9.2642 19.9997 9.2642ZM19.9997 25.7644C20.3644 25.7644 20.7141 25.9093 20.972 26.1672C21.2299 26.425 21.3747 26.7748 21.3747 27.1395C21.3747 27.5041 21.2299 27.8539 20.972 28.1118C20.7141 28.3696 20.3644 28.5145 19.9997 28.5145C19.635 28.5145 19.2853 28.3696 19.0274 28.1118C18.7696 27.8539 18.6247 27.5041 18.6247 27.1395C18.6247 26.7748 18.7696 26.425 19.0274 26.1672C19.2853 25.9093 19.635 25.7644 19.9997 25.7644ZM19.9997 12.7018C21.1579 12.7018 22.2799 13.1051 23.173 13.8425C24.0661 14.5798 24.6745 15.6052 24.8938 16.7424C25.1131 17.8796 24.9296 19.0576 24.3747 20.0742C23.8199 21.0908 22.9283 21.8824 21.8532 22.3131C21.694 22.3717 21.5505 22.4663 21.4339 22.5895C21.3734 22.6583 21.3637 22.7463 21.3651 22.837L21.3747 23.0144C21.3743 23.3649 21.2402 23.702 20.9996 23.9568C20.759 24.2116 20.4302 24.365 20.0803 24.3855C19.7304 24.4061 19.3859 24.2922 19.1172 24.0673C18.8484 23.8424 18.6757 23.5233 18.6343 23.1753L18.6247 23.0144V22.6706C18.6247 21.0853 19.9035 20.1337 20.8302 19.7611C21.2074 19.6105 21.5364 19.36 21.782 19.0365C22.0275 18.7129 22.1803 18.3286 22.2239 17.9248C22.2676 17.521 22.2004 17.113 22.0296 16.7445C21.8588 16.376 21.5908 16.061 21.2545 15.8333C20.9181 15.6056 20.5262 15.4739 20.1206 15.4522C19.715 15.4305 19.3112 15.5196 18.9525 15.7101C18.5938 15.9006 18.2937 16.1852 18.0846 16.5334C17.8754 16.8815 17.765 17.2801 17.7653 17.6862C17.7653 18.0509 17.6204 18.4006 17.3626 18.6585C17.1047 18.9164 16.755 19.0612 16.3903 19.0612C16.0256 19.0612 15.6759 18.9164 15.418 18.6585C15.1601 18.4006 15.0153 18.0509 15.0153 17.6862C15.0153 16.3642 15.5404 15.0964 16.4752 14.1617C17.4099 13.2269 18.6778 12.7018 19.9997 12.7018Z" fill="white"/>
</svg>
