<svg width="20" height="20" viewBox="0 0 20 20" fill="none" xmlns="http://www.w3.org/2000/svg">
<g clip-path="url(#clip0_18_3225)">
<path d="M15.4845 1.78402L10.2637 0.043189C10.0927 -0.0137453 9.90793 -0.0137453 9.73699 0.043189L4.51616 1.78402C3.68608 2.05976 2.96401 2.59007 2.45253 3.29961C1.94105 4.00916 1.66619 4.86185 1.66699 5.73652V10.0007C1.66699 16.3032 9.33366 19.784 9.66199 19.929C9.76851 19.9763 9.88377 20.0008 10.0003 20.0008C10.1169 20.0008 10.2321 19.9763 10.3387 19.929C10.667 19.784 18.3337 16.3032 18.3337 10.0007V5.73652C18.3345 4.86185 18.0596 4.00916 17.5481 3.29961C17.0366 2.59007 16.3146 2.05976 15.4845 1.78402ZM16.667 10.0007C16.667 14.5465 11.4012 17.5282 10.0003 18.2415C8.59783 17.5307 3.33366 14.5582 3.33366 10.0007V5.73652C3.33371 5.21175 3.49889 4.70031 3.8058 4.27464C4.11271 3.84898 4.54578 3.53068 5.04366 3.36486L10.0003 1.71236L14.957 3.36486C15.4549 3.53068 15.8879 3.84898 16.1949 4.27464C16.5018 4.70031 16.6669 5.21175 16.667 5.73652V10.0007Z" fill="#8C8A88"/>
<path d="M12.7502 6.91673L9.26015 10.4167L7.39015 8.46673C7.31511 8.38468 7.2244 8.31848 7.12337 8.27202C7.02234 8.22557 6.91304 8.1998 6.8019 8.19624C6.69076 8.19268 6.58003 8.2114 6.47624 8.2513C6.37245 8.29119 6.27769 8.35146 6.19755 8.42854C6.1174 8.50563 6.0535 8.59797 6.0096 8.70013C5.96569 8.8023 5.94268 8.91221 5.94191 9.0234C5.94115 9.1346 5.96264 9.24482 6.00513 9.34758C6.04762 9.45034 6.11025 9.54355 6.18932 9.62174L8.11099 11.6217C8.2543 11.7765 8.42752 11.9007 8.62017 11.9866C8.81282 12.0725 9.0209 12.1185 9.23182 12.1217H9.25932C9.46603 12.1224 9.67082 12.082 9.8618 12.0029C10.0528 11.9238 10.2261 11.8076 10.3718 11.6609L13.9318 8.1009C14.0096 8.02331 14.0713 7.93116 14.1134 7.82973C14.1556 7.72829 14.1773 7.61954 14.1774 7.5097C14.1776 7.39985 14.156 7.29106 14.1141 7.18954C14.0722 7.08801 14.0107 6.99573 13.9331 6.91798C13.8555 6.84023 13.7633 6.77852 13.6619 6.73637C13.5605 6.69423 13.4517 6.67248 13.3419 6.67236C13.232 6.67225 13.1232 6.69377 13.0217 6.7357C12.9202 6.77762 12.8279 6.83914 12.7502 6.91673Z" fill="#8C8A88"/>
</g>
<defs>
<clipPath id="clip0_18_3225">
<rect width="20" height="20" fill="white"/>
</clipPath>
</defs>
</svg>
