<svg width="48" height="68" viewBox="0 0 48 68" fill="none" xmlns="http://www.w3.org/2000/svg">
<path opacity="0.6" d="M43.5565 29.2433C43.7096 28.6016 44.5538 28.5621 45.3239 28.0931C46.0694 27.634 46.9432 26.6861 46.6815 24.4152C46.2569 25.4963 45.6201 25.9604 45.1067 25.8666C44.5933 25.7728 44.2033 25.1606 44.2625 24.0055C44.2279 23.3439 44.9882 23.0922 45.6399 22.4356C45.9706 22.1097 46.2816 21.6753 46.3705 21.0483C46.4248 20.7324 46.4347 20.372 46.3952 19.9474C46.3705 19.5229 46.2273 19.0539 46.0052 18.5306C45.9361 19.671 45.3634 20.298 44.8598 20.3374C44.6031 20.3572 44.3464 20.2387 44.1341 19.9771C43.9169 19.7154 43.6898 19.3254 43.5516 18.7626C43.4677 18.4417 43.596 18.1702 43.8083 17.8789C44.0058 17.5877 44.2773 17.2865 44.4995 16.8867C44.7216 16.4868 44.8845 15.998 44.8598 15.3464C44.8006 14.7145 44.5093 13.9296 43.8527 13.0113C44.0354 14.1566 43.6849 14.8922 43.2011 15.065C42.9592 15.1539 42.6729 15.1094 42.3915 14.912C42.1051 14.7194 41.8484 14.364 41.5325 13.8802C41.1869 13.3174 41.7299 12.7102 41.9718 11.8117C42.0755 11.3723 42.1002 10.8638 41.8929 10.2517C41.7053 9.62471 41.2017 8.96812 40.3279 8.25229C40.792 9.31369 40.6735 10.0937 40.244 10.3899C39.8145 10.6812 39.1036 10.5281 38.3285 9.67408C37.8398 9.22977 38.1952 8.51394 38.1952 7.58583C38.1952 7.35381 38.1755 7.10697 38.1064 6.85026C38.0274 6.60836 37.9089 6.35165 37.7262 6.09C37.5436 5.82835 37.2968 5.56177 36.9709 5.29025C36.655 5.00885 36.2057 4.80151 35.6923 4.56948C36.0576 5.01379 36.2699 5.42354 36.339 5.78392C36.3983 6.15418 36.3292 6.45532 36.1613 6.65279C35.9935 6.85519 35.7367 6.93912 35.3912 6.91937C35.0407 6.90456 34.6161 6.77127 34.1175 6.47013C33.5596 6.10975 33.7028 5.36923 33.4609 4.47568C33.3325 4.04125 33.1153 3.55251 32.6266 3.13289C32.3798 2.93542 32.0687 2.74782 31.6787 2.57997C31.2887 2.422 30.8296 2.24427 30.2619 2.19491C30.7408 2.49605 31.037 2.89099 31.1949 3.22175C31.3529 3.55745 31.3628 3.86353 31.2542 4.09555C31.1456 4.32758 30.9135 4.49543 30.5778 4.55467C30.41 4.58429 30.2175 4.57935 29.9953 4.55961C29.7682 4.54973 29.5164 4.51518 29.235 4.44113C28.5933 4.28809 28.5538 3.4439 28.0848 2.67377C27.6257 1.92832 26.6778 1.05452 24.4069 1.31617C25.4881 1.74073 25.9521 2.37757 25.8583 2.89099C25.7645 3.39947 25.1524 3.79441 23.9972 3.73517C23.3356 3.76973 23.0839 3.01441 22.4273 2.35782C22.1015 2.02706 21.667 1.71604 21.0401 1.62718C20.7241 1.57288 20.3637 1.563 19.9392 1.6025C19.5146 1.62718 19.0456 1.77035 18.5223 1.9925C19.6627 2.06161 20.2897 2.63428 20.3292 3.13782C20.3489 3.39454 20.2304 3.65125 19.9688 3.86353C19.7071 4.08074 19.3171 4.30783 18.7543 4.451C18.4334 4.53492 18.1619 4.40657 17.8707 4.19429C17.5843 3.99682 17.2733 3.7253 16.8784 3.50314C16.4785 3.28099 15.9898 3.11808 15.3381 3.14276C14.7062 3.202 13.9213 3.49327 13.003 4.14986C14.1484 3.9672 14.8839 4.32264 15.0567 4.80151C15.1456 5.04341 15.1011 5.32974 14.9086 5.61113C14.7161 5.89747 14.3606 6.15418 13.8768 6.47507C13.314 6.82064 12.7068 6.2776 11.8083 6.03569C11.369 5.93202 10.8605 5.90734 10.2483 6.11468C9.62136 6.30228 8.96477 6.80583 8.24894 7.67963C9.31528 7.21558 10.0903 7.33406 10.3866 7.76356C10.6778 8.19305 10.5248 8.90394 9.67073 9.67901C9.22642 10.1678 8.51553 9.81231 7.58248 9.81231C7.35045 9.81231 7.10362 9.83205 6.84691 9.90117C6.60007 9.97522 6.3483 10.0986 6.08665 10.2813C5.825 10.464 5.55842 10.7108 5.28689 11.0366C5.0055 11.3526 4.79816 11.8018 4.56613 12.3152C5.01044 11.9499 5.42019 11.7376 5.78057 11.6685C6.15082 11.6093 6.45197 11.6784 6.64944 11.8462C6.85184 12.0141 6.93577 12.2708 6.91602 12.6164C6.90121 12.9669 6.76792 13.3914 6.46678 13.8901C6.1064 14.4479 5.36588 14.3047 4.47233 14.5516C4.0379 14.6799 3.54916 14.8972 3.12954 15.3859C2.93207 15.6327 2.74447 15.9437 2.57662 16.3337C2.41865 16.7238 2.24092 17.1779 2.19156 17.7506C2.4927 17.2717 2.88764 16.9755 3.2184 16.8175C3.5541 16.6596 3.86018 16.6497 4.0922 16.7583C4.32917 16.8669 4.49208 17.0989 4.55132 17.4346C4.58094 17.6025 4.58094 17.795 4.55626 18.0172C4.54638 18.2443 4.51183 18.496 4.43778 18.7774C4.28474 19.4192 3.44055 19.4587 2.67042 19.9277C1.92497 20.3868 1.05117 21.3347 1.31281 23.6056C1.73737 22.5244 2.37422 22.0604 2.88764 22.1542C3.40106 22.248 3.79106 22.8601 3.73182 24.0153C3.76638 24.6768 3.00612 24.9286 2.35447 25.5852C2.02371 25.911 1.71269 26.3455 1.62383 26.9724C1.56953 27.2884 1.55965 27.6488 1.59915 28.0733C1.62383 28.4979 1.767 28.9669 1.98915 29.4902C2.05826 28.3498 2.63093 27.7228 3.13447 27.6833C3.39119 27.6636 3.64789 27.7821 3.86017 28.0437C4.07739 28.3054 4.30448 28.6954 4.44271 29.2581C4.52664 29.579 4.39828 29.8506 4.186 30.1418C3.98853 30.4331 3.71701 30.7342 3.49486 31.1341C3.2727 31.534 3.10979 32.0227 3.13447 32.6744C3.19372 33.3063 3.48498 34.0912 4.14157 35.0095C3.95891 33.8641 4.30942 33.1286 4.79322 32.9558C5.03512 32.8669 5.32145 32.9113 5.60285 33.1088C5.88918 33.3013 6.14589 33.6568 6.46678 34.1406C6.81235 34.7034 6.26931 35.3106 6.02741 36.2091C5.92373 36.6485 5.89905 37.1569 6.1064 37.7691C6.29399 38.3961 6.79754 39.0527 7.67134 39.7685C7.20729 38.7071 7.32577 37.9271 7.75527 37.6309C8.18476 37.3396 8.89566 37.4926 9.67073 38.3467C10.1595 38.791 9.80402 39.5068 9.80402 40.4349C9.80402 40.667 9.82376 40.9138 9.89288 41.1705C9.97187 41.4124 10.0903 41.6691 10.273 41.9308C10.4557 42.1924 10.7025 42.459 11.0283 42.7305C11.3443 43.0119 11.7935 43.2193 12.3069 43.4513C11.9367 43.007 11.7293 42.5972 11.6602 42.2369C11.601 41.8666 11.6701 41.5655 11.838 41.368C12.0058 41.1656 12.2625 41.0817 12.6081 41.1014C12.9586 41.1162 13.3832 41.2495 13.8818 41.5506C14.4396 41.911 14.2965 42.6515 14.5384 43.5451C14.6667 43.9795 14.8839 44.4683 15.3727 44.8879C15.6195 45.0854 15.9305 45.273 16.3205 45.4408C16.7105 45.5988 17.1696 45.7765 17.7374 45.8259C17.2585 45.5247 16.9623 45.1298 16.8043 44.799C16.6463 44.4633 16.6365 44.1572 16.7451 43.9252C16.8537 43.6932 17.0857 43.5253 17.4214 43.4661C17.5893 43.4365 17.7818 43.4414 18.004 43.4612C18.231 43.471 18.4828 43.5056 18.7642 43.5796C19.406 43.7327 19.4455 44.5769 19.9145 45.347C20.3736 46.0925 21.3214 46.9663 23.5923 46.7046C22.5112 46.28 22.0471 45.6432 22.1409 45.1298C22.2397 44.6213 22.8469 44.2264 24.0021 44.2856C24.6636 44.251 24.9154 45.0113 25.572 45.663C25.8978 45.9937 26.3322 46.3047 26.9592 46.3936C27.2752 46.4479 27.6355 46.4578 28.0601 46.4183C28.4847 46.3936 28.9537 46.2504 29.4769 46.0283C28.3366 45.9592 27.7096 45.3865 27.6701 44.8829C27.6504 44.6262 27.7688 44.3695 28.0305 44.1572C28.2921 43.94 28.6821 43.7129 29.2449 43.5698C29.5658 43.4859 29.8373 43.6142 30.1286 43.8265C30.4149 44.024 30.721 44.2955 31.1209 44.5176C31.5208 44.7398 32.0095 44.9027 32.6612 44.878C33.2931 44.8188 34.078 44.5324 34.9962 43.8709C33.8509 44.0536 33.1153 43.6981 32.9425 43.2193C32.8537 42.9774 32.8981 42.691 33.0906 42.4096C33.2832 42.1233 33.6386 41.8666 34.1224 41.5457C34.6852 41.2001 35.2924 41.7432 36.1909 41.9851C36.6254 42.0888 37.1388 42.1134 37.746 41.9061C38.373 41.7185 39.0296 41.2149 39.7454 40.3411C38.679 40.8052 37.904 40.6867 37.6078 40.2572C37.3165 39.8277 37.4695 39.1168 38.3236 38.3418C38.7679 37.853 39.4837 38.2085 40.4118 38.2085C40.6439 38.2085 40.8907 38.1887 41.1474 38.1196C41.3893 38.0456 41.646 37.9221 41.9077 37.7395C42.1693 37.5568 42.4359 37.31 42.7074 36.9842C42.9888 36.6682 43.1962 36.219 43.4282 35.7055C42.9839 36.0709 42.5741 36.2831 42.2138 36.3523C41.8435 36.4115 41.5424 36.3424 41.3449 36.1745C41.1425 36.0067 41.0586 35.75 41.0783 35.4044C41.0931 35.0539 41.2264 34.6293 41.5275 34.1307C41.8879 33.5729 42.6284 33.716 43.522 33.4692C43.9564 33.3408 44.4452 33.1236 44.8648 32.6349C45.0623 32.388 45.2499 32.077 45.4177 31.687C45.5757 31.297 45.7534 30.8428 45.8028 30.2702C45.5016 30.749 45.1067 31.0453 44.7759 31.2032C44.4402 31.3612 44.1341 31.3711 43.9021 31.2625C43.6701 31.1539 43.5022 30.9218 43.443 30.5861C43.4134 30.4183 43.4183 30.2258 43.4381 30.0036C43.4479 29.7765 43.4825 29.5247 43.5565 29.2433Z" fill="url(#paint0_linear_2119_3265)"/>
<path d="M30.8394 41.1607C40.317 37.3834 44.9379 26.6382 41.1606 17.1607C37.3833 7.68314 26.6381 3.06221 17.1606 6.83952C7.68305 10.6168 3.06212 21.362 6.83943 30.8395C10.6167 40.3171 21.3619 44.938 30.8394 41.1607Z" fill="url(#paint1_radial_2119_3265)"/>
<g style="mix-blend-mode:multiply">
<path d="M31.6692 7.39522C33.4563 8.16042 35.0953 9.20207 36.5369 10.4659C36.3739 11.7939 35.7865 13.3736 34.1573 14.6325C30.6424 17.3477 26.7522 16.78 26.8756 15.4273C26.9843 14.2376 31.452 13.2156 31.6692 7.39522ZM14.8448 31.7235C20.0284 32.8343 24.037 32.0938 26.1993 27.6507C28.3616 23.2076 29.9019 22.9608 33.9747 22.4671C37.0848 22.0919 39.9037 19.8753 41.0639 16.3998C40.2937 14.7905 39.2965 13.3094 38.1117 12.0012C37.5489 14.282 36.1419 16.6417 32.8639 17.6538C25.6464 19.8753 23.178 21.1046 21.2626 24.3776C19.352 27.6507 16.0197 27.0336 9.47855 27.157C8.33817 27.1768 7.23727 27.3249 6.19562 27.5421C6.56094 29.6451 7.27676 31.6248 8.28386 33.4168C9.444 32.3406 11.6014 31.0274 14.8448 31.7235ZM18.4881 14.9978C26.2289 12.7763 28.3962 9.61182 29.0972 6.50661C27.863 6.18078 26.5844 5.98331 25.2663 5.92407C25.3008 8.15054 24.4616 10.382 21.386 11.3594C17.1305 12.717 14.8201 11.2854 12.5393 10.2092C10.9744 11.5223 9.62666 13.0873 8.56526 14.8448C10.2487 15.7679 13.3045 16.4838 18.4881 14.9978ZM22.403 6.008C19.4804 6.32395 16.7652 7.32117 14.4153 8.83182C15.6446 9.61676 17.6884 10.2141 20.4677 8.63928C21.7908 7.8889 22.324 6.96079 22.4079 6.00306L22.403 6.008ZM13.4921 25.365C17.876 24.4369 19.1694 20.4875 21.0799 19.5643C22.9904 18.6362 23.8544 17.3033 22.4968 16.5529C21.1391 15.8025 17.5008 17.3428 15.6495 18.7004C14.124 19.821 10.0068 20.6405 6.946 18.3104C6.28448 20.211 5.9241 22.2499 5.9241 24.3727C5.9241 24.6097 5.93397 24.8466 5.94384 25.0836C8.08639 25.5081 11.0484 25.8784 13.4971 25.36L13.4921 25.365ZM34.4733 39.8543C36.9664 38.2252 39.0447 36.0135 40.5109 33.4119C36.8034 32.6467 34.5375 37.1835 34.4733 39.8543ZM22.6844 42.767C23.2471 42.8164 23.8198 42.8509 24.3974 42.8509C26.4363 42.8509 28.4011 42.5152 30.2376 41.9031C26.382 40.7973 24.037 41.6908 22.6893 42.767H22.6844ZM37.307 22.8176C35.5396 23.568 32.9873 24.3283 33.792 25.1626C34.5967 25.9969 37.7414 27.1077 38.6992 24.7923C39.6569 22.477 38.5461 22.2943 37.3119 22.8176H37.307ZM17.6242 41.5624C20.0383 38.7139 23.3952 40.037 27.5569 39.5581C32.9232 38.941 33.7871 34.3745 36.8726 32.8343C39.958 31.294 40.4517 32.2172 42.0561 27.3446C42.2339 26.8016 42.4906 26.3227 42.7967 25.9031C42.8361 25.3995 42.8658 24.8911 42.8658 24.3776C42.8658 21.8451 42.3523 19.4261 41.4292 17.2292C40.7528 18.3202 40.5109 19.8605 40.5109 21.7266C40.5109 26.5399 36.685 28.5146 33.5403 27.2163C30.3955 25.9179 29.344 30.1783 28.7269 34.5128C28.1098 38.8472 23.7902 38.2647 17.0022 35.1151C13.9809 33.713 11.9815 34.9521 10.6831 36.759C12.5788 38.8571 14.9485 40.5109 17.6242 41.5624ZM25.4884 31.8716C23.5976 32.5628 19.041 32.6417 19.6877 33.6933C20.3345 34.7399 25.913 37.5192 27.1472 34.1277C28.3814 30.7362 26.8213 31.3878 25.4884 31.8765V31.8716Z" fill="#FFD01C"/>
</g>
<path d="M13.5229 64.16C12.6482 64.16 11.8109 64.0373 11.0109 63.792C10.2109 63.536 9.57621 63.2107 9.10688 62.816L9.82688 61.2C10.2749 61.552 10.8295 61.8453 11.4909 62.08C12.1522 62.3147 12.8295 62.432 13.5229 62.432C14.1095 62.432 14.5842 62.368 14.9469 62.24C15.3095 62.112 15.5762 61.9413 15.7469 61.728C15.9175 61.504 16.0029 61.2533 16.0029 60.976C16.0029 60.6347 15.8802 60.3627 15.6349 60.16C15.3895 59.9467 15.0695 59.7813 14.6749 59.664C14.2909 59.536 13.8589 59.4187 13.3789 59.312C12.9095 59.2053 12.4349 59.0827 11.9549 58.944C11.4855 58.7947 11.0535 58.608 10.6589 58.384C10.2749 58.1493 9.96021 57.84 9.71488 57.456C9.46954 57.072 9.34688 56.5813 9.34688 55.984C9.34688 55.376 9.50688 54.8213 9.82688 54.32C10.1575 53.808 10.6535 53.4027 11.3149 53.104C11.9869 52.7947 12.8349 52.64 13.8589 52.64C14.5309 52.64 15.1975 52.7253 15.8589 52.896C16.5202 53.0667 17.0962 53.312 17.5869 53.632L16.9309 55.248C16.4295 54.9493 15.9122 54.7307 15.3789 54.592C14.8455 54.4427 14.3335 54.368 13.8429 54.368C13.2669 54.368 12.7975 54.4373 12.4349 54.576C12.0829 54.7147 11.8215 54.896 11.6509 55.12C11.4909 55.344 11.4109 55.6 11.4109 55.888C11.4109 56.2293 11.5282 56.5067 11.7629 56.72C12.0082 56.9227 12.3229 57.0827 12.7069 57.2C13.1015 57.3173 13.5389 57.4347 14.0189 57.552C14.4989 57.6587 14.9735 57.7813 15.4429 57.92C15.9229 58.0587 16.3549 58.24 16.7389 58.464C17.1335 58.688 17.4482 58.992 17.6829 59.376C17.9282 59.76 18.0509 60.2453 18.0509 60.832C18.0509 61.4293 17.8855 61.984 17.5549 62.496C17.2349 62.9973 16.7389 63.4027 16.0669 63.712C15.3949 64.0107 14.5469 64.16 13.5229 64.16ZM23.5374 64.112C22.812 64.112 22.172 63.9787 21.6174 63.712C21.0627 63.4347 20.6307 63.0187 20.3214 62.464C20.012 61.8987 19.8574 61.1893 19.8574 60.336V55.456H21.8574V60.064C21.8574 60.832 22.028 61.408 22.3694 61.792C22.7214 62.1653 23.2174 62.352 23.8574 62.352C24.3267 62.352 24.732 62.256 25.0734 62.064C25.4254 61.872 25.6974 61.584 25.8894 61.2C26.092 60.816 26.1934 60.3413 26.1934 59.776V55.456H28.1934V64H26.2894V61.696L26.6254 62.4C26.3374 62.9547 25.916 63.3813 25.3614 63.68C24.8067 63.968 24.1987 64.112 23.5374 64.112ZM35.66 55.36C36.3427 55.36 36.9507 55.4933 37.484 55.76C38.028 56.0267 38.4547 56.4373 38.764 56.992C39.0733 57.536 39.228 58.24 39.228 59.104V64H37.228V59.36C37.228 58.6027 37.0467 58.0373 36.684 57.664C36.332 57.2907 35.836 57.104 35.196 57.104C34.7267 57.104 34.3107 57.2 33.948 57.392C33.5853 57.584 33.3027 57.872 33.1 58.256C32.908 58.6293 32.812 59.104 32.812 59.68V64H30.812V55.456H32.716V57.76L32.38 57.056C32.6787 56.512 33.1107 56.096 33.676 55.808C34.252 55.5093 34.9133 55.36 35.66 55.36Z" fill="#A71E2A"/>
<defs>
<linearGradient id="paint0_linear_2119_3265" x1="1.27332" y1="24.0005" x2="46.7309" y2="24.0005" gradientUnits="userSpaceOnUse">
<stop stop-color="#FFD21C"/>
<stop offset="1" stop-color="#FF8F26"/>
</linearGradient>
<radialGradient id="paint1_radial_2119_3265" cx="0" cy="0" r="1" gradientUnits="userSpaceOnUse" gradientTransform="translate(18.2801 14.0063) scale(25.7451)">
<stop stop-color="#FFD21C"/>
<stop offset="1" stop-color="#FF5B26"/>
</radialGradient>
</defs>
</svg>
